<?xml version="1.0" standalone="no"?><!DOCTYPE svg PUBLIC "-//W3C//DTD SVG 1.1//EN" "http://www.w3.org/Graphics/SVG/1.1/DTD/svg11.dtd"><svg t="1673235290442" class="icon" viewBox="0 0 1024 1024" version="1.1" xmlns="http://www.w3.org/2000/svg" p-id="9190" xmlns:xlink="http://www.w3.org/1999/xlink" width="200" height="200"><path d="M788.48 112.64c67.86048 0 122.88 55.01952 122.88 122.88v552.96c0 67.86048-55.01952 122.88-122.88 122.88H235.52c-67.86048 0-122.88-55.01952-122.88-122.88V235.52c0-67.86048 55.01952-122.88 122.88-122.88h552.96z m-481.28 51.2h-71.68a71.68 71.68 0 0 0-71.63904 69.2224L163.84 235.52v92.16h66.56a25.6 25.6 0 1 1 0 51.2H163.84v112.64h66.56a25.6 25.6 0 1 1 0 51.2H163.84v112.64h66.56a25.6 25.6 0 1 1 0 51.2H163.84v81.92a71.68 71.68 0 0 0 69.2224 71.63904L235.52 860.16h71.68V163.84z m481.28 0H358.4v696.32h430.08a71.68 71.68 0 0 0 71.63904-69.2224L860.16 788.48V235.52a71.68 71.68 0 0 0-69.2224-71.63904L788.48 163.84z" fill="#13227a" p-id="9191"></path><path d="M737.28 235.52a30.72 30.72 0 0 1 30.72 30.72v163.84a30.72 30.72 0 0 1-30.72 30.72H491.52a30.72 30.72 0 0 1-30.72-30.72V266.24a30.72 30.72 0 0 1 30.72-30.72h245.76z m-20.48 51.2H512v122.88h204.8V286.72z" fill="#13227a" p-id="9192"></path></svg>